<?xml version="1.0" encoding="UTF-8" standalone="no"?>
<!-- Created with Inkscape (http://www.inkscape.org/) -->

<svg
   version="1.1"
   id="svg198"
   width="2327.6389"
   height="2365.8191"
   viewBox="0 0 2327.6389 2365.8191"
   sodipodi:docname="Boat28b.svg"
   inkscape:version="1.2.2 (732a01da63, 2022-12-09, custom)"
   xmlns:inkscape="http://www.inkscape.org/namespaces/inkscape"
   xmlns:sodipodi="http://sodipodi.sourceforge.net/DTD/sodipodi-0.dtd"
   xmlns="http://www.w3.org/2000/svg"
   xmlns:svg="http://www.w3.org/2000/svg">
  <defs
     id="defs202" />
  <sodipodi:namedview
     id="namedview200"
     pagecolor="#ffffff"
     bordercolor="#000000"
     borderopacity="0.25"
     inkscape:showpageshadow="2"
     inkscape:pageopacity="0.0"
     inkscape:pagecheckerboard="0"
     inkscape:deskcolor="#d1d1d1"
     showgrid="false"
     inkscape:zoom="0.25558538"
     inkscape:cx="1889.7795"
     inkscape:cy="1077.9177"
     inkscape:window-width="1846"
     inkscape:window-height="1016"
     inkscape:window-x="0"
     inkscape:window-y="0"
     inkscape:window-maximized="1"
     inkscape:current-layer="layer2" />
  <g
     inkscape:groupmode="layer"
     id="layer2"
     inkscape:label="Boat">
    <path
       id="path316"
       style="fill:#000000;stroke-width:1.06667"
       d="M 1218.6616 -6.8207206 C 1210.8447 -6.8207206 1210.0153 -6.6041268 1207.4233 -3.8871268 C 1205.8842 -2.2738108 1204.1243 0.37282941 1203.5112 1.9956857 C 1202.8867 3.6488637 1201.9458 22.325343 1201.3725 44.466389 L 1200.3491 83.983967 L 1177.0288 121.51522 C 1164.2023 142.157 908.88628 533.93079 609.66744 992.11287 C 101.0148 1770.9925 64.884786 1826.6182 54.196736 1847.3121 C 47.909426 1859.4854 42.613808 1869.4469 42.429158 1869.4469 C 42.244508 1869.4469 30.632011 1866.7012 16.624471 1863.3472 C -6.2261642 1857.8766 -10.049441 1857.2454 -20.576701 1857.2144 C -30.748671 1857.184 -32.90801 1857.4999 -36.80717 1859.5836 C -42.57394 1862.6654 -43.510295 1864.5574 -43.510295 1873.1383 C -43.510295 1880.061 -43.434229 1880.2436 -38.656779 1885.0211 C -32.000259 1891.6777 -24.200453 1895.0008 1.2904863 1902.0387 C 13.317036 1905.3592 24.134862 1908.6895 25.331502 1909.439 C 26.528142 1910.1886 95.168805 1969.9606 177.86471 2042.2652 L 328.22213 2173.7301 L 356.00338 2213.4918 L 383.78267 2253.2515 L 408.269 2306.1109 L 432.75728 2358.9683 L 493.55611 2358.9976 C 526.99581 2359.0135 607.15628 2358.3256 671.68892 2357.4683 C 736.22166 2356.611 1054.2266 2352.5383 1378.3569 2348.4176 C 1702.4873 2344.2968 1978.8142 2340.63 1992.4096 2340.2691 L 2017.1284 2339.6129 L 2018.4604 2336.2633 C 2019.1929 2334.4209 2019.8999 2332.761 2020.0327 2332.5758 C 2020.1655 2332.3907 2023.0825 2333.8318 2026.5151 2335.7769 L 2032.7573 2339.314 L 2062.3569 2339.6422 L 2091.9565 2339.9703 L 2091.9565 2282.0133 C 2091.9565 2217.5605 2092.3691 2221.1998 2084.6225 2217.2476 C 2082.4261 2216.1271 2077.5373 2214.4301 2073.7592 2213.4762 C 2060.1722 2210.0457 2059.6694 2209.7909 2060.3374 2206.6617 C 2060.6679 2205.1137 2062.3561 2197.6068 2064.0874 2189.9801 C 2068.5801 2170.1891 2073.2718 2146.5963 2076.396 2128.0953 C 2079.5817 2109.229 2085.5561 2067.7409 2085.5561 2064.484 C 2085.5561 2062.3295 2085.203 2062.2471 2078.8901 2062.9097 C 2075.2235 2063.2946 2068.9829 2063.9112 2065.0229 2064.2808 L 2057.8237 2064.9527 L 2057.8237 2039.7769 L 2057.8237 2014.5992 L 2049.146 2014.2887 L 2040.4663 2013.9801 L 2086.2124 1967.2183 L 2131.9565 1920.4566 L 2201.8725 1921.191 C 2278.4037 1921.994 2276.7075 1922.1072 2281.644 1915.8316 C 2284.8849 1911.7115 2284.9744 1898.3311 2281.7963 1893.1187 C 2278.6642 1887.9814 2272.3967 1885.4993 2262.4838 1885.4703 L 2254.3452 1885.4469 L 2240.4838 1844.6461 C 2055.9204 1301.37 1929.3801 784.78285 1857.3745 280.64608 C 1853.8551 256.00628 1849.2842 222.88627 1847.2163 207.04647 C 1845.1484 191.20657 1843.242 177.02978 1842.9799 175.54451 C 1842.5495 173.10515 1843.1057 172.612 1848.7338 170.42928 C 1857.6604 166.96789 1860.4897 163.79543 1860.4897 157.24764 C 1860.4897 154.36516 1859.7356 150.5475 1858.8139 148.76522 C 1856.5279 144.34457 1848.8917 140.99158 1842.9624 141.80428 C 1840.5422 142.136 1816.4248 150.79573 1789.3686 161.04842 L 1740.1753 179.691 L 1490.7319 134.42342 C 1353.5395 109.52683 1239.6095 88.879107 1237.5561 88.540608 L 1233.8237 87.925373 L 1234.2045 47.462483 C 1234.4141 25.207913 1234.2787 5.3631653 1233.9038 3.3648263 C 1233.5289 1.3664873 1231.845 -1.7413708 1230.1616 -3.5433768 C 1227.2439 -6.6668008 1226.7067 -6.8207206 1218.6616 -6.8207206 z M 1239.1069 94.800373 C 1239.2099 94.664923 1347.7448 114.23216 1480.2924 138.28475 C 1612.8407 162.33729 1723.2094 182.33085 1725.5561 182.71444 L 1729.8237 183.41365 L 1726.1381 184.92147 C 1724.1109 185.75146 1654.7489 212.12124 1572.0034 243.52108 C 1489.258 274.92084 1419.7638 301.25635 1417.5737 302.04256 L 1413.5932 303.47225 L 1326.2553 199.25936 C 1278.2205 141.94259 1239.0034 94.935823 1239.1069 94.800373 z M 1199.8491 96.983967 C 1200.0179 97.152857 1190.1082 537.85144 1177.8276 1076.3082 C 1165.5471 1614.7646 1155.3626 2055.4591 1155.1948 2055.6226 C 1155.027 2055.786 1146.8479 2021.0424 1137.019 1978.4156 L 1119.1479 1900.9137 L 1117.0405 1866.2457 C 1106.9317 1699.9231 1100.6784 1539.9561 1097.7124 1371.8453 C 1096.3311 1293.5549 1097.0155 1053.2592 1098.7983 990.51326 C 1105.8156 743.54254 1116.5026 569.95181 1137.9077 355.31209 C 1144.3419 290.79383 1158.8274 164.61695 1160.2378 160.80623 C 1161.0663 158.56739 1199.5029 96.637857 1199.8491 96.983967 z M 1233.8237 98.315998 L 1320.435 201.74764 C 1368.0716 258.63491 1406.7122 305.51196 1406.3022 305.91756 C 1405.8923 306.32316 1369.3162 320.39059 1325.0229 337.17928 C 1280.7302 353.96798 1244.028 368.16374 1243.4624 368.7242 C 1242.4966 369.68129 1242.7555 370.7754 1245.5385 377.44686 L 1245.5366 377.44686 C 1246.2383 379.12929 1245.5139 379.31209 1238.2006 379.31209 L 1230.0854 379.31209 L 1230.0854 368.9117 C 1230.0808 354.96364 1233.2609 115.18314 1233.5756 105.74764 L 1233.8237 98.315998 z M 1230.3178 384.64608 L 1239.81 384.64608 L 1249.3042 384.64608 L 1253.2612 392.64608 C 1255.4384 397.04604 1257.8504 400.64608 1258.6206 400.64608 C 1259.3909 400.64608 1261.6857 399.95121 1263.7202 399.10115 L 1267.4194 397.55428 L 1267.4194 409.50155 C 1267.4183 416.07157 1262.8595 741.60838 1257.2885 1132.9137 C 1251.7174 1524.2187 1247.1557 1850.6384 1247.1557 1858.2867 L 1247.1557 1872.191 L 1238.3569 1872.1519 L 1229.5561 1872.1129 L 1229.2456 1880.3785 L 1229.2417 1880.3805 L 1228.9292 1888.6461 L 1219.4585 1888.6461 L 1209.9878 1888.6461 L 1210.476 1868.6461 C 1210.7442 1857.6461 1215.0298 1528.4844 1219.9995 1137.1793 C 1224.9692 745.87412 1229.3241 416.47257 1229.6772 405.17928 L 1230.3178 384.64608 z M 70.089314 1829.6656 L 134.08931 1830.3805 C 445.38074 1833.856 747.89117 1855.1243 1038.6225 1893.9742 C 1095.4151 1901.5632 1112.7179 1904.1665 1113.7065 1905.2711 C 1114.1865 1905.8075 1122.1004 1938.8856 1131.2944 1978.7789 C 1140.4882 2018.6714 1149.3753 2057.1919 1151.0424 2064.3785 C 1152.974 2072.7038 1153.6395 2077.3837 1152.8803 2077.275 C 1150.1825 2076.8885 1142.7771 2076.1913 1114.3569 2073.648 C 861.70907 2051.0399 610.54089 2008.1028 359.15572 1944.5504 C 335.10257 1938.4695 255.52688 1919.4625 182.32174 1902.3121 C 98.995955 1882.7907 49.332165 1870.6894 49.520955 1869.9527 C 49.686825 1869.3054 54.383207 1859.9757 59.956502 1849.2203 L 70.089314 1829.6656 z M 1210.1381 1893.9742 L 1219.5795 1893.9742 L 1229.0229 1893.9742 L 1229.0229 1902.359 L 1229.0229 1910.7437 L 1262.8901 1911.4234 C 1281.5167 1911.7969 1474.8384 1913.7972 1692.4897 1915.8687 C 1910.141 1917.9402 2094.7992 1919.9807 2102.8374 1920.4039 L 2117.4526 1921.1734 L 2026.1323 1967.8414 L 1934.812 2014.5074 L 1888.851 2014.5191 C 1859.0884 2014.523 1841.3855 2014.9339 1838.6225 2015.6851 C 1826.9576 2018.8568 1822.844 2032.6904 1830.853 2041.8121 C 1835.0454 2046.5871 1839.2299 2047.5632 1855.6889 2047.5992 L 1869.5561 2047.6305 L 1857.2905 2054.068 C 1850.5438 2057.6078 1833.2634 2066.4283 1818.8901 2073.6676 L 1792.7573 2086.8297 L 1750.0893 2088.5738 C 1726.6226 2089.5324 1692.0638 2090.7673 1673.2905 2091.318 L 1673.2905 2091.3121 C 1622.5985 2092.799 1505.3639 2093.381 1456.9799 2092.3863 C 1384.7564 2090.9015 1306.5744 2087.6293 1236.0737 2083.1383 L 1207.3901 2081.3101 L 1208.0698 2046.5758 C 1208.4427 2027.4717 1209.0605 1985.3211 1209.4428 1952.9078 L 1210.1381 1893.9742 z M 41.977986 1914.314 C 44.903712 1914.325 58.871832 1918.125 102.31588 1930.2574 C 137.39078 1940.0526 190.61974 1954.9155 220.60103 1963.2867 L 275.11275 1978.5074 L 272.63424 1986.3121 C 266.73745 2004.8812 264.11495 2024.2735 263.02291 2057.357 L 262.29439 2079.4 L 286.78658 2114.4234 C 300.25718 2133.6858 311.64058 2150.0456 312.0815 2150.7789 C 312.52246 2151.5123 312.73342 2152.072 312.55221 2152.023 C 312.37091 2151.9738 252.2228 2099.3763 178.8901 2035.1402 C 105.55733 1970.9049 43.978786 1917.0206 42.050252 1915.398 C 41.25402 1914.7281 41.002744 1914.3104 41.977986 1914.314 z M 2113.8237 1930.0015 L 2105.8491 1938.3902 C 2101.4635 1943.0039 2082.8532 1962.0194 2064.4936 1980.6461 L 2031.1128 2014.5133 L 1989.8901 2014.5133 C 1967.2175 2014.5133 1948.8684 2014.3307 1949.1128 2014.109 C 1949.6761 2013.5978 2082.6115 1945.5821 2100.4897 1936.6578 L 2113.8237 1930.0015 z M 1883.2631 2047.5797 L 1937.476 2047.5797 L 1991.6889 2047.5797 L 1991.6616 2051.0465 C 1991.6373 2053.9333 1990.0755 2056.1353 1982.3276 2064.2183 L 1973.0229 2073.9254 L 1937.2905 2076.7867 C 1917.6372 2078.3608 1883.796 2080.8163 1862.0893 2082.2418 C 1840.3826 2083.6674 1819.5955 2085.0385 1815.896 2085.2887 C 1812.1965 2085.5387 1809.318 2085.6093 1809.4975 2085.4449 C 1809.677 2085.2805 1826.3466 2076.6935 1846.5424 2066.3629 L 1883.2631 2047.5797 z M 1991.3725 2064.6461 C 1991.5468 2064.6461 1991.6889 2066.2754 1991.6889 2068.2672 C 1991.6889 2071.7105 1991.4808 2071.9092 1987.4409 2072.2945 L 1983.1928 2072.6988 L 1987.1245 2068.6715 C 1989.2869 2066.457 1991.1983 2064.6461 1991.3725 2064.6461 z "
       transform="translate(43.510295,6.8207206)" />
    <g
       id="layer1"
       inkscape:label="Body"
       style="fill:#a02c2c">
      <path
         style="fill:#a02c2c;stroke-width:1.06667"
         d="m 1228.9074,40.309156 c 0.079,-23.502825 -0.2634,-35.2114176 -1.0758,-36.8000006 -2.9218,-5.713251 -9.756,-7.775376 -14.5772,-4.39845799 -5.2462,3.67458299 -5.4988,5.43523199 -6.5245,45.47773759 -0.5306,20.711631 -0.8404,37.788633 -0.6888,37.948891 0.1517,0.160259 5.0248,1.147194 10.8289,2.193187 l 10.5531,1.901808 0.6843,-5.92652 c 0.3763,-3.259586 0.7363,-21.438077 0.8,-40.396645 z"
         transform="translate(43.510295,6.8207206)"
         id="path407" />
      <path
         style="fill:#a02c2c;stroke-width:1.06667"
         d="m 1804.4898,181.41155 c 25.2267,-9.82899 46.9467,-18.84588 48.2667,-20.03752 6.4151,-5.79135 -1.8067,-16.22355 -10.7833,-13.68219 -1.8425,0.52164 -23.2701,8.51221 -47.6167,17.75682 -24.3467,9.24462 -45.3734,17.22414 -46.7259,17.73228 -2.4299,0.91287 -2.3923,1.01959 3.1506,8.95852 3.0855,4.41905 6.112,7.83403 6.7259,7.58883 0.6138,-0.24521 21.756,-8.48774 46.9827,-18.31674 z"
         transform="translate(43.510295,6.8207206)"
         id="path405" />
      <path
         style="fill:#a02c2c;stroke-width:1.06667"
         d="m 1589.2898,265.40752 c 88.1467,-34.43625 160.2667,-63.01227 160.2667,-63.50227 0,-0.49001 -2.28,-4.21501 -5.0667,-8.27779 -3.5286,-5.14452 -5.5523,-7.19674 -6.6667,-6.76058 -0.88,0.34443 -73.12,27.75056 -160.5333,60.90247 -87.4133,33.15193 -159.2445,60.59131 -159.6248,60.97641 -0.3802,0.38511 1.2967,5.1467 3.7264,10.58131 3.2911,7.36114 4.8277,9.72946 6.0248,9.28647 0.8838,-0.32708 73.7269,-28.76978 161.8736,-63.20602 z"
         transform="translate(43.510295,6.8207206)"
         id="path401" />
      <path
         style="fill:#a02c2c;stroke-width:1.06667"
         d="m 1224.7322,373.71262 c -0.014,-3.08 0.7803,-67.40638 1.7635,-142.94751 0.9834,-75.54113 1.5498,-137.585701 1.2586,-137.876809 -0.2911,-0.291108 -5.4047,-1.420948 -11.3635,-2.510754 l -10.8344,-1.981467 -0.011,5.458269 c 0,3.00205 -1.441,66.898271 -3.1911,141.991601 -1.75,75.09333 -3.186,138.09334 -3.191,140 l -0.011,3.46667 h 12.8 12.8 l -0.024,-5.6 z"
         transform="translate(43.510295,6.8207206)"
         id="path397" />
      <path
         style="fill:#a02c2c;stroke-width:1.06667"
         d="m 1341.5564,362.31978 c 42.24,-16.53817 77.1709,-30.43528 77.6243,-30.88247 1.1384,-1.12317 -7.8576,-20.57505 -9.2782,-20.06181 -15.3507,5.54596 -158.204,59.95277 -158.8122,60.48489 -0.4764,0.41679 1.4436,5.41545 4.2667,11.10812 4.285,8.64074 5.4851,10.27354 7.2661,9.88548 1.1733,-0.25565 36.6933,-13.99606 78.9333,-30.53421 z"
         transform="translate(43.510295,6.8207206)"
         id="path395" />
      <path
         style="fill:#a02c2c;stroke-width:1.06667"
         d="m 1204.8783,1877.7127 c 0.3265,-6.0134 4.6842,-334.4534 9.6838,-729.8667 4.9995,-395.41338 9.374,-728.89338 9.7211,-741.06671 l 0.6309,-22.13334 h -12.7679 -12.768 l -0.6542,15.2 c -0.6476,15.04518 -33.7566,1470.85075 -33.7199,1482.66675 l 0.019,6.1333 h 19.6307 19.6307 z"
         transform="translate(43.510295,6.8207206)"
         id="path389" />
      <path
         style="fill:#a02c2c;stroke-width:1.06667"
         d="m 32.724245,1888.7101 c 5.95274,-11.8794 6.65979,-13.879 5.0743,-14.3518 -1.01319,-0.3021 -13.60217,-3.2584 -27.9755102,-6.5698 -28.2284798,-6.5033 -35.0538598,-7.0301 -42.7789198,-3.3019 -10.413,5.0254 -7.24916,14.6935 7.31243,22.3454 6.02574,3.1664 44.94427,15.2775 50.12553,15.5985 0.72913,0.045 4.43811,-6.129 8.24217,-13.7204 z"
         transform="translate(43.510295,6.8207206)"
         id="path385" />
      <path
         style="fill:#a02c2c;stroke-width:1.06667"
         d="m 2129.3149,1910.7793 c 0.6456,-2.4933 2.1412,-8.0562 3.3235,-12.3619 1.1824,-4.3058 1.833,-8.1458 1.4458,-8.5333 -0.3872,-0.3877 -27.4244,-1.0524 -60.0825,-1.4771 -32.6582,-0.4249 -225.4586,-2.9196 -428.4452,-5.5439 -202.9867,-2.6244 -378.5467,-5.0054 -390.1334,-5.2911 l -21.0667,-0.5195 v 14.2087 14.2087 l 29.0667,0.6417 c 15.9867,0.3528 82.5867,1.1302 148,1.7275 65.4134,0.5972 168.8534,1.6129 229.8667,2.257 178.4909,1.8845 460.7992,4.8982 474.359,5.0639 l 12.4921,0.1527 z"
         transform="translate(43.510295,6.8207206)"
         id="path383" />
      <path
         style="fill:#a02c2c;stroke-width:1.06667"
         d="m 2273.3247,1914.7613 c 8.6869,-4.4922 7.8274,-17.8318 -1.4307,-22.2069 -2.8888,-1.3652 -13.0826,-1.6617 -67.3322,-1.9585 l -63.9279,-0.3499 -2.9779,11.7333 c -1.6379,6.4534 -2.9902,12.0872 -3.0053,12.5195 -0.015,0.4324 16.6525,0.9188 37.0391,1.081 20.3867,0.1621 50.8905,0.4083 67.7864,0.5472 25.7253,0.2113 31.2282,-0.011 33.8485,-1.3657 z"
         transform="translate(43.510295,6.8207206)"
         id="path381" />
      <path
         style="fill:#a02c2c;stroke-width:1.06667"
         d="m 292.9873,1955.3127 c 7.83501,-9.3867 13.92828,-17.3591 13.54061,-17.7165 -0.8395,-0.7739 -257.053525,-60.6959 -259.371535,-60.6605 -0.96102,0.015 -4.46165,5.5482 -8.7655,13.8557 l -7.16551,13.8312 2.89551,0.7268 c 1.59253,0.3997 56.41701,15.7256 121.832175,34.0576 65.41516,18.332 119.80339,33.2502 120.86273,33.1516 1.05933,-0.099 8.33651,-7.8593 16.17152,-17.2459 z"
         transform="translate(43.510295,6.8207206)"
         id="path379" />
      <path
         style="fill:#a02c2c;stroke-width:1.06667"
         d="m 1937.0381,2020.0695 c -48.8482,-0.1705 -90.8211,-0.026 -93.2732,0.3207 -12.2912,1.7387 -15.2706,14.6611 -4.6084,19.9874 3.4507,1.724 9.5658,1.8652 80.8,1.8667 h 77.0667 v 3.4518 c 0,3.352 0.4169,3.0358 14.4149,-10.9333 l 14.4149,-14.3852 -88.8149,-0.3098 z"
         transform="translate(43.510295,6.8207206)"
         id="path375" />
      <path
         style="fill:#a02c2c;stroke-width:1.06667"
         d="m 2022.3472,2068.8984 c 11.5918,-1.1812 23.116,-2.4357 25.6093,-2.7878 l 4.5333,-0.6402 v -22.8121 -22.8123 h -8.7892 -8.7891 l -18.9442,18.9222 -18.9441,18.9223 v 6.6777 c 0,7.9362 -2.9404,7.4103 25.324,4.5302 z"
         transform="translate(43.510295,6.8207206)"
         id="path371" />
      <path
         style="fill:#a02c2c;stroke-width:1.06667"
         d="m 1202.7253,2046.246 c 0.3751,-18.92 0.9963,-60.92 1.3804,-93.3333 l 0.6984,-58.9334 h -19.8421 -19.8423 l -0.5226,3.4667 c -0.8471,5.6175 -4.2183,178.9112 -3.4946,179.635 0.6272,0.6271 27.2363,3.1175 36.564,3.4221 l 4.3769,0.1429 z"
         transform="translate(43.510295,6.8207206)"
         id="path365" />
      <path
         style="fill:#a02c2c;stroke-width:1.06667"
         d="m 1658.3565,2139.2826 c 119.9247,-2.8953 234.5024,-8.7644 354.6667,-18.1673 22.5866,-1.7673 45.0667,-3.5101 49.9557,-3.8727 7.7268,-0.5731 8.9971,-0.9516 9.7163,-2.8946 1.3323,-3.6001 6.8279,-44.3576 6.0817,-45.1039 -0.3741,-0.374 -5.8416,-0.1209 -12.1502,0.5625 -254.5885,27.5783 -499.1873,35.079 -752.8036,23.085 -319.5496,-15.112 -639.00903,-62.7566 -954.66413,-142.3801 -22.87857,-5.7711 -41.68937,-10.401 -41.80175,-10.2885 -0.72984,0.7298 17.9612,74.8072 19.18362,76.0297 0.66017,0.6602 58.00007,12.8827 98.99395,21.1016 389.48571,78.0875 798.42101,112.1744 1222.82171,101.9283 z"
         transform="translate(43.510295,6.8207206)"
         id="path359" />
      <path
         style="fill:#a02c2c;stroke-width:1.06667"
         d="m 1557.0111,2197.9648 c 144.3978,-3.4486 277.8391,-10.0408 443.7454,-21.9217 49.8148,-3.5672 60.5031,-4.5257 61.3906,-5.5053 0.4113,-0.4538 2.507,-10.1851 4.6571,-21.6251 2.1499,-11.44 4.167,-22.12 4.4821,-23.7334 0.6994,-3.5802 3.2265,-3.5086 -29.1197,-0.8257 -300.1667,24.8967 -606.4747,28.7409 -889.9435,11.1692 -272.10657,-16.8674 -534.57863,-52.4971 -786.01454,-106.6989 -14.89463,-3.2108 -27.24526,-5.6737 -27.44582,-5.4732 -0.5179,0.5179 6.97209,25.148 15.68751,51.5867 l 7.43617,22.5581 7.6741,1.733 c 15.11149,3.4126 87.20764,17.6527 115.99588,22.9109 266.04896,48.5944 527.0423,72.6677 838.4,77.3318 37.3429,0.5593 187.0878,-0.4085 233.0547,-1.5064 z"
         transform="translate(43.510295,6.8207206)"
         id="path355" />
      <path
         style="fill:#a02c2c;stroke-width:1.06667"
         d="m 370.38056,2219.046 c -17.50959,-45.2988 -90.01374,-231.0024 -90.60646,-232.0686 -1.1068,-1.9911 -5.0897,11.7717 -7.57241,26.1664 -2.27005,13.1616 -4.65868,47.2886 -4.06078,58.0175 l 0.37995,6.818 52.08994,74.4 c 28.64946,40.92 52.24047,74.4 52.42445,74.4 0.18398,0 -1.01064,-3.48 -2.65469,-7.7333 z"
         transform="translate(43.510295,6.8207206)"
         id="path353" />
      <path
         style="fill:#a02c2c;stroke-width:1.06667"
         d="m 1477.0231,2255.5741 c 172.817,-2.281 328.1548,-8.6412 509.3334,-20.8544 22,-1.4831 44.8769,-2.9862 50.8375,-3.3404 l 10.8375,-0.6439 3.3333,-12.5978 c 4.0934,-15.4705 9.8927,-40.5748 9.4502,-40.9088 -0.1788,-0.135 -4.8852,0.1363 -10.4585,0.6031 -17.9169,1.5004 -114.6511,8.2852 -149.8667,10.5116 -534.2017,33.7716 -970.34116,16.8834 -1374.40672,-53.22 -45.28078,-7.856 -128.22966,-23.8172 -159.63402,-30.7172 -2.19609,-0.4824 -2.08668,0.1024 2.26985,12.133 4.5279,12.504 15.66534,41.8327 21.44724,56.478 l 2.98911,7.5712 18.7339,2.8902 c 273.98326,42.2704 534.65355,64.8077 821.93394,71.0638 28.7467,0.6261 65.7067,1.2433 82.1333,1.3718 16.4267,0.1284 41.8667,0.3356 56.5334,0.4606 14.6666,0.1249 61.7067,-0.2355 104.5333,-0.8008 z"
         transform="translate(43.510295,6.8207206)"
         id="path351" />
      <path
         style="fill:#a02c2c;stroke-width:1.06667"
         d="m 1410.8898,2313.1365 c 181.3435,-3.1635 381.7182,-12.565 579.5778,-27.1934 19.5678,-1.4468 36.9506,-2.6304 38.6285,-2.6304 2.9909,0 3.1439,-0.2975 7.8122,-15.2 7.05,-22.5052 9.3906,-30.8132 8.8369,-31.3669 -0.2727,-0.2726 -25.8667,1.204 -56.8755,3.2814 -224.8571,15.0641 -400.2428,21.23 -603.0466,21.2009 -194.679,-0.028 -345.8396,-5.6769 -523.73335,-19.5719 -148.1639,-11.5727 -321.87794,-31.8938 -454.13336,-53.1247 -6.6,-1.0595 -12,-1.7587 -12,-1.5538 0,1.8158 33.47425,76.8967 35.53629,79.706 1.32199,1.8009 15.97293,3.8248 70.59705,9.752 213.29109,23.1441 431.887,35.5832 661.86667,37.6634 88.8379,0.8035 162.0447,0.5182 246.9334,-0.9626 z"
         transform="translate(43.510295,6.8207206)"
         id="path349" />
      <path
         style="fill:#a02c2c;stroke-width:1.06667"
         d="m 2086.6232,2280.278 c 0,-50.319 -0.135,-54.3568 -1.8686,-55.9258 -2.3817,-2.1554 -5.8898,-3.4742 -17.4361,-6.5548 l -9.3036,-2.4824 -1.7507,7.0655 c -5.712,23.0518 -21.3084,71.9259 -30.7524,96.3684 l -2.7701,7.1695 3.0632,2.1813 c 8.4144,5.9916 10.5473,6.3644 36.5516,6.3895 l 24.2667,0.023 z"
         transform="translate(43.510295,6.8207206)"
         id="path347" />
      <path
         style="fill:#a02c2c;stroke-width:1.06667"
         d="m 1166.6231,2345.6558 c 340.2667,-4.3558 659.2267,-8.4114 708.8,-9.0123 49.5734,-0.6008 100.7822,-1.3784 113.7975,-1.7281 l 23.6641,-0.6357 1.8023,-4.4168 c 4.3083,-10.5586 15.325,-40.5836 15.0073,-40.9013 -0.1919,-0.1919 -23.5813,1.3211 -51.9766,3.3621 -265.7933,19.1045 -486.4479,27.4518 -725.7613,27.4552 -296.14201,0 -537.36056,-13.0978 -800.32742,-43.471 -8.39341,-0.9694 -15.50502,-1.5183 -15.80358,-1.2198 -0.4601,0.4601 27.28829,56.7012 36.58366,74.1485 l 3.014,5.6573 36.26667,-0.6592 c 19.94667,-0.3626 314.66669,-4.223 654.93337,-8.5789 z"
         transform="translate(43.510295,6.8207206)"
         id="path345" />
      <path
         style="fill:#a02c2c;stroke-width:1.06667"
         d="m 447.75867,2313.9793 c -60.83993,-121.3263 -104.50086,-238.0518 -131.08282,-350.444 -2.53797,-10.7309 -5.05811,-19.3854 -5.60031,-19.2323 -0.5422,0.153 -7.14301,7.6409 -14.66848,16.6395 -12.71543,15.2047 -13.60991,16.5643 -12.65354,19.2323 0.566,1.5792 24.39093,62.8345 52.9443,136.123 49.31323,126.5734 52.98858,135.5549 73.33122,179.2 11.77881,25.2715 22.77099,48.9482 24.42708,52.6149 l 3.01105,6.6666 h 15.37548 15.37546 z"
         transform="translate(43.510295,6.8207206)"
         id="path343" />
    </g>
    <g
       id="layer3"
       inkscape:label="Sail"
       style="fill:#e9c6af">
      <path
         style="fill:#e9c6af;stroke-width:1.06667"
         d="m 1112.7515,1893.7127 c 0,-2.4934 -0.7143,-15.8134 -1.5815,-29.6 -15.1257,-240.4654 -22.6807,-526.9207 -19.8429,-752.3705 2.742,-217.84643 9.7531,-381.64424 24.6615,-576.16291 8.5021,-110.92988 22.3557,-250.1152 34.2211,-343.81515 1.213,-9.57833 2.0422,-17.56967 1.8427,-17.75852 -0.1994,-0.18885 -242.86785,371.00796 -539.26312,824.88186 l -538.900495,825.22522 29.567135,0.2102 c 146.77645,1.0437 316.97402,7.2557 462.63381,16.8855 175.39569,11.5958 367.49295,31.2635 515.07377,52.7356 15.3227,2.2294 28.6996,4.1094 29.7263,4.1777 1.5051,0.1003 1.8657,-0.7537 1.8617,-4.409 z"
         transform="translate(43.510295,6.8207206)"
         id="path387" />
      <path
         style="fill:#e9c6af;stroke-width:1.06667"
         d="m 2247.6898,1885.0185 c 0,-0.2351 -13.4149,-40.6751 -29.811,-89.8667 -48.4735,-145.4303 -82.548,-254.4865 -120.4304,-385.4391 -119.68,-413.71412 -205.2899,-817.01668 -256.9906,-1210.66675 -2.772,-21.10602 -3.1776,-22.92333 -5.09,-22.80781 -1.7329,0.10475 -561.4548,218.51114 -562.1035,219.33578 -0.2358,0.29971 -20.8723,1457.03588 -20.812,1469.12428 l 0.037,7.5187 102.1333,1.2994 c 121.7426,1.5489 184.3404,2.3828 573.0667,7.6344 163.3867,2.2074 302.2267,4.0768 308.5334,4.1543 6.3066,0.078 11.4666,-0.051 11.4666,-0.2865 z"
         transform="translate(43.510295,6.8207206)"
         id="path393" />
    </g>
  </g>
</svg>
